<svg width="38" height="37" viewBox="0 0 38 37" fill="none" xmlns="http://www.w3.org/2000/svg">
<path d="M15.8956 14.6951H12.9435V18.5001H15.8956V29.9149H20.8158V18.5001H24.3584L24.752 14.6951H20.8158V13.078C20.8158 12.2219 21.0126 11.8414 21.8983 11.8414H24.752V7.08516H21.0126C17.4701 7.08516 15.8956 8.60714 15.8956 11.4609V14.6951Z" fill="#979797"/>
<path fill-rule="evenodd" clip-rule="evenodd" d="M26.5588 2.69721H11.1365C6.66761 2.69721 3.04487 6.31995 3.04487 10.7888V26.2112C3.04487 30.68 6.6676 34.3028 11.1365 34.3028H26.5588C31.0277 34.3028 34.6504 30.68 34.6504 26.2112V10.7888C34.6504 6.31995 31.0277 2.69721 26.5588 2.69721ZM11.1365 0C5.17798 0 0.347656 4.83032 0.347656 10.7888V26.2112C0.347656 32.1697 5.17797 37 11.1365 37H26.5588C32.5173 37 37.3477 32.1697 37.3477 26.2112V10.7888C37.3477 4.83033 32.5173 0 26.5588 0H11.1365Z" fill="#979797"/>
</svg>
