<svg width="38" height="37" viewBox="0 0 38 37" fill="none" xmlns="http://www.w3.org/2000/svg">
<path d="M19.1273 8.90833C13.9052 8.90833 9.60468 13.2089 9.60468 18.431C9.60468 23.6531 13.9052 27.9536 19.1273 27.9536C24.3494 27.9536 28.65 23.6531 28.65 18.431C28.65 13.2089 24.3494 8.90833 19.1273 8.90833ZM19.1273 24.5746C15.7483 24.5746 12.9837 21.81 12.9837 18.431C12.9837 15.052 15.7483 12.2873 19.1273 12.2873C22.5063 12.2873 25.271 15.052 25.271 18.431C25.271 21.81 22.5063 24.5746 19.1273 24.5746ZM28.9572 6.45087C27.7284 6.45087 26.8069 7.37242 26.8069 8.60115C26.8069 9.82987 27.7284 10.7514 28.9572 10.7514C30.1859 10.7514 31.1074 9.82987 31.1074 8.60115C31.1074 7.37242 30.1859 6.45087 28.9572 6.45087Z" fill="#979797"/>
<path fill-rule="evenodd" clip-rule="evenodd" d="M26.9075 2.69721H11.4851C7.01624 2.69721 3.3935 6.31995 3.3935 10.7888V26.2112C3.3935 30.68 7.01624 34.3028 11.4851 34.3028H26.9074C31.3763 34.3028 34.9991 30.68 34.9991 26.2112V10.7888C34.9991 6.31995 31.3763 2.69721 26.9075 2.69721ZM11.4851 0C5.52662 0 0.696289 4.83032 0.696289 10.7888V26.2112C0.696289 32.1697 5.52661 37 11.4851 37H26.9074C32.866 37 37.6963 32.1697 37.6963 26.2112V10.7888C37.6963 4.83033 32.866 0 26.9075 0H11.4851Z" fill="#979797"/>
</svg>
