<svg width="37" height="37" viewBox="0 0 37 37" fill="none" xmlns="http://www.w3.org/2000/svg">
<path fill-rule="evenodd" clip-rule="evenodd" d="M26.2112 2.69721H10.7888C6.31995 2.69721 2.69721 6.31995 2.69721 10.7888V26.2112C2.69721 30.68 6.31995 34.3028 10.7888 34.3028H26.2112C30.68 34.3028 34.3028 30.68 34.3028 26.2112V10.7888C34.3028 6.31995 30.68 2.69721 26.2112 2.69721ZM10.7888 0C4.83033 0 0 4.83032 0 10.7888V26.2112C0 32.1697 4.83032 37 10.7888 37H26.2112C32.1697 37 37 32.1697 37 26.2112V10.7888C37 4.83033 32.1697 0 26.2112 0H10.7888Z" fill="#979797"/>
<path d="M27.1189 11.2262H20.3589C20.1922 11.2262 20.0587 11.3609 20.0587 11.527C20.0587 11.3609 20.1922 11.304 20.3589 11.4L24.0205 13.5236L27.1203 11.7245C27.2376 11.6561 27.3409 11.5267 27.3879 11.3973C27.3409 11.2962 27.2373 11.2262 27.1189 11.2262Z" fill="#979797"/>
<path d="M27.1189 15.8207H20.3589C20.1922 15.8207 20.0587 15.685 20.0587 15.5199C20.0587 15.685 20.1922 15.8986 20.3589 15.9943L27.1189 19.9167C27.2846 20.012 27.4191 19.9551 27.4191 19.7887V15.7965C27.4191 15.7497 27.4074 15.6998 27.3876 15.6489C27.3406 15.7503 27.2373 15.8207 27.1189 15.8207Z" fill="#979797"/>
<path d="M27.1189 15.3228L24.0205 13.5236L20.3589 15.6472C20.1922 15.7429 20.0587 15.685 20.0587 15.5199C20.0587 15.685 20.1922 15.8207 20.3589 15.8207H27.1189C27.2373 15.8207 27.3406 15.7503 27.3876 15.6489C27.3406 15.5209 27.2373 15.3908 27.1189 15.3228Z" fill="#979797"/>
<path d="M27.4191 7.25958C27.4191 7.09214 27.2843 7.03553 27.1199 7.13257L20.3589 11.0516C20.1928 11.1477 20.0587 11.3599 20.0587 11.527C20.0587 11.3609 20.1922 11.2262 20.3589 11.2262H27.1189C27.2373 11.2262 27.3409 11.2962 27.3879 11.3973C27.408 11.3464 27.4191 11.2962 27.4191 11.2504V7.25958Z" fill="#979797"/>
<path d="M20.3589 15.6472L24.0205 13.5236L20.3589 11.4C20.1922 11.304 20.0587 11.3609 20.0587 11.527V15.5199C20.0587 15.685 20.1922 15.7429 20.3589 15.6472Z" fill="#979797"/>
<path d="M9.44688 19.9534H11.2124V23.2943L14.3243 19.9534H16.6332L13.0672 23.6929L16.9384 28.0008H14.4715L11.2124 24.1814V28.0008H9.44688V19.9534Z" fill="#979797"/>
<path d="M24.2147 27.4327C23.1732 27.9775 22.0309 28.2059 20.8533 28.2059C18.3525 28.2059 16.5302 26.5564 16.5302 23.9769C16.5302 21.3975 18.3528 19.7489 20.8533 19.7489C22.1207 19.7489 23.2417 20.0329 24.0449 20.7822L22.7993 22.1474C22.325 21.6458 21.7478 21.3847 20.8533 21.3847C19.3483 21.3847 18.3636 22.4766 18.3636 23.9769C18.3636 25.4772 19.3483 26.5685 20.8533 26.5685C21.623 26.5685 22.1888 26.3519 22.5169 26.1706V24.864H21.0807V23.2266H24.2147V27.4327Z" fill="#979797"/>
</svg>
