<svg width="45" height="19" viewBox="0 0 45 19" fill="none" xmlns="http://www.w3.org/2000/svg">
<path d="M14.4064 19C13.4896 18.8854 12.5954 18.8396 10.7844 18.8396H3.23804C1.81096 18.8396 0.916769 18.8625 0 18.9083C0.153547 18.0516 0.203225 17.1902 0.203225 15.8478V3.80273C0.203225 2.20374 0.153547 1.36989 0 0.371094H3.85223C3.69869 1.32407 3.64901 2.0892 3.64901 3.77982V16.0265H10.789C12.5231 16.0265 13.3406 15.9807 14.4109 15.8661V19H14.4064Z" fill="white"/>
<path d="M22.9285 0.371094C22.775 1.25076 22.7253 1.97008 22.7253 3.36289V15.8432C22.7253 17.2131 22.775 17.9553 22.9285 18.835H19.0537C19.2073 17.9553 19.2569 17.2131 19.2569 15.8432V3.36289C19.2569 1.92426 19.2073 1.29658 19.0537 0.371094H22.9285Z" fill="white"/>
<path d="M32.0377 18.835C30.0506 18.835 29.6397 18.8579 28.75 18.9496C28.9035 17.6255 29.0797 16.8145 29.4139 15.9807C30.1003 14.2855 31.2519 12.801 32.9093 11.4357C33.8035 10.7164 34.5667 10.1849 37.1183 8.62719C39.4667 7.16565 40.1803 6.40052 40.1803 5.21846C40.1803 3.64239 38.8299 2.6665 36.6622 2.6665C35.1854 2.6665 34.0609 3.12925 33.4242 4.03641C32.9906 4.59536 32.81 5.10392 32.6338 6.17144L28.9894 5.77742C29.3461 4.0135 29.8068 3.0651 30.7506 2.06631C32.0242 0.719314 34.0384 0 36.59 0C41.0519 0 43.8067 1.94719 43.8067 5.12683C43.8067 6.65709 43.2467 7.77043 41.9957 8.83794C41.2822 9.44272 41.0248 9.62598 37.7099 11.6923C36.59 12.4116 35.3119 13.3875 34.6751 14.0106C33.9119 14.7528 33.6048 15.2156 33.2209 16.0998H40.3609C41.9686 16.0998 43.2422 16.0311 44.0822 15.912V18.9725C42.8854 18.8808 41.8648 18.835 40.2299 18.835H32.0422H32.0377Z" fill="white"/>
</svg>
