<svg width="44" height="20" viewBox="0 0 44 20" fill="none" xmlns="http://www.w3.org/2000/svg">
<path d="M14.3029 19.8561C13.3927 19.7364 12.5049 19.6886 10.707 19.6886H3.21478C1.79795 19.6886 0.910182 19.7125 0 19.7604C0.152444 18.865 0.201765 17.9648 0.201765 16.5619V3.97399C0.201765 2.30294 0.152444 1.4315 0 0.387695H3.82456C3.67211 1.38362 3.62279 2.18324 3.62279 3.95005V16.7487H10.7115C12.4332 16.7487 13.2447 16.7008 14.3073 16.5811V19.8561H14.3029Z" fill="#070001"/>
<path d="M22.7635 0.387695C22.611 1.30701 22.5617 2.05875 22.5617 3.51433V16.5571C22.5617 17.9888 22.611 18.7645 22.7635 19.6838H18.9165C19.0689 18.7645 19.1183 17.9888 19.1183 16.5571V3.51433C19.1183 2.01086 19.0689 1.35489 18.9165 0.387695H22.7635Z" fill="#070001"/>
<path d="M31.8071 19.6839C29.8343 19.6839 29.4262 19.7079 28.543 19.8036C28.6954 18.4199 28.8703 17.5724 29.2021 16.7009C29.8836 14.9293 31.0269 13.378 32.6724 11.9511C33.5602 11.1994 34.3179 10.644 36.8512 9.01601C39.1827 7.4886 39.8911 6.68899 39.8911 5.45366C39.8911 3.80655 38.5505 2.78668 36.3983 2.78668C34.9322 2.78668 33.8158 3.27028 33.1836 4.21832C32.7531 4.80247 32.5738 5.33395 32.3989 6.44958L28.7806 6.0378C29.1348 4.19438 29.5921 3.20324 30.5292 2.15944C31.7936 0.751733 33.7933 0 36.3266 0C40.7564 0 43.4915 2.03495 43.4915 5.35789C43.4915 6.95712 42.9355 8.12063 41.6935 9.23626C40.9851 9.86829 40.7295 10.0598 37.4385 12.2193C36.3266 12.971 35.0577 13.9909 34.4255 14.642C33.6678 15.4177 33.3629 15.9013 32.9818 16.8254H40.0705C41.6666 16.8254 42.931 16.7536 43.765 16.6291V19.8276C42.5768 19.7318 41.5635 19.6839 39.9404 19.6839H31.8116H31.8071Z" fill="#070001"/>
</svg>
