<svg width="56" height="25" viewBox="0 0 56 25" fill="none" xmlns="http://www.w3.org/2000/svg">
<path d="M18.008 25.0002C16.862 24.8495 15.7443 24.7892 13.4806 24.7892H4.04756C2.2637 24.7892 1.14596 24.8193 0 24.8796C0.191934 23.7523 0.254031 22.6189 0.254031 20.8526V5.00383C0.254031 2.8999 0.191934 1.80273 0 0.488525H4.81529C4.62336 1.74244 4.56126 2.74919 4.56126 4.97369V21.0877H13.4862C15.6539 21.0877 16.6757 21.0274 18.0136 20.8767V25.0002H18.008Z" fill="#979797"/>
<path d="M28.6604 0.488525C28.4685 1.64599 28.4064 2.59245 28.4064 4.4251V20.8466C28.4064 22.6491 28.4685 23.6257 28.6604 24.7832H23.8169C24.0088 23.6257 24.0709 22.6491 24.0709 20.8466V4.4251C24.0709 2.53217 24.0088 1.70627 23.8169 0.488525H28.6604Z" fill="#979797"/>
<path d="M40.0462 24.7829C37.5623 24.7829 37.0486 24.8131 35.9365 24.9337C36.1285 23.1914 36.3486 22.1244 36.7664 21.0272C37.6244 18.7967 39.0639 16.8435 41.1357 15.047C42.2534 14.1005 43.2074 13.4012 46.3969 11.3516C49.3324 9.42849 50.2243 8.42174 50.2243 6.8664C50.2243 4.79261 48.5364 3.50856 45.8268 3.50856C43.9808 3.50856 42.5752 4.11743 41.7792 5.31106C41.2373 6.04653 41.0115 6.71569 40.7913 8.12032L36.2357 7.60187C36.6817 5.28092 37.2575 4.03303 38.4373 2.71883C40.0292 0.946466 42.547 0 45.7365 0C51.3138 0 54.7574 2.56209 54.7574 6.74583C54.7574 8.75933 54.0574 10.2242 52.4937 11.6289C51.6018 12.4246 51.28 12.6658 47.1365 15.3846C45.7365 16.3311 44.1389 17.6151 43.3429 18.435C42.3889 19.4116 42.005 20.0205 41.5252 21.184H50.4501C52.4598 21.184 54.0517 21.0935 55.1017 20.9368V24.9638C53.6058 24.8432 52.33 24.7829 50.2864 24.7829H40.0518H40.0462Z" fill="#979797"/>
</svg>
