<svg width="70" height="58" viewBox="0 0 70 58" fill="none" xmlns="http://www.w3.org/2000/svg">
<path fill-rule="evenodd" clip-rule="evenodd" d="M3.97102 4.04233C7.18941 0.766145 12.2268 0 18.7209 0H51.2791C57.7732 0 62.8106 0.766145 66.029 4.04233C69.2474 7.31852 70 12.4463 70 19.0571V22.3714C70 23.7443 68.9067 24.8571 67.5581 24.8571C64.4137 24.8571 61.8605 27.4563 61.8605 30.6571C61.8605 33.858 64.4137 36.4571 67.5581 36.4571C68.9067 36.4571 70 37.57 70 38.9429C70 45.5537 69.2474 50.6815 66.029 53.9577C62.8106 57.2339 57.7732 58 51.2791 58H18.7209C12.2268 58 7.18941 57.2339 3.97102 53.9577C0.752628 50.6815 0 45.5537 0 38.9429V37.2857C0 35.9129 1.09326 34.8 2.44186 34.8C5.58628 34.8 8.13953 32.2009 8.13953 29C8.13953 25.7991 5.58628 23.2 2.44186 23.2C1.09326 23.2 0 22.0871 0 20.7143V19.0571C0 12.4463 0.752628 7.31852 3.97102 4.04233ZM4.8857 18.5176C9.55009 19.6412 13.0233 23.9096 13.0233 29C13.0233 34.0904 9.55009 38.3588 4.8857 39.4824C4.93238 45.7615 5.80472 48.7936 7.42433 50.4423C9.08966 52.1376 12.1919 53.0286 18.7209 53.0286H51.2791C57.8081 53.0286 60.9103 52.1376 62.5757 50.4423C64.0466 48.945 64.9011 46.3067 65.0806 41.1314C60.4332 39.9954 56.9767 35.7352 56.9767 30.6571C56.9767 25.5661 60.4509 21.2971 65.1163 20.1742V19.0571C65.1163 12.4108 64.241 9.2529 62.5757 7.55767C60.9103 5.86243 57.8081 4.97143 51.2791 4.97143H18.7209C12.1919 4.97143 9.08966 5.86243 7.42433 7.55767C5.80472 9.20636 4.93237 12.2385 4.8857 18.5176Z" fill="black"/>
<path fill-rule="evenodd" clip-rule="evenodd" d="M46.5546 16.3789C47.5131 17.3497 47.5131 18.9235 46.5546 19.8943L26.9182 39.78C25.9596 40.7507 24.4055 40.7507 23.4469 39.78C22.4884 38.8092 22.4884 37.2354 23.4469 36.2646L43.0833 16.3789C44.0419 15.4082 45.596 15.4082 46.5546 16.3789Z" fill="black"/>
<path fill-rule="evenodd" clip-rule="evenodd" d="M41.8188 38.2064C41.8188 36.4268 43.237 34.9841 44.9864 34.9841H45.0149C46.7643 34.9841 48.1825 36.4268 48.1825 38.2064C48.1825 39.9859 46.7643 41.4286 45.0149 41.4286H44.9864C43.237 41.4286 41.8188 39.9859 41.8188 38.2064Z" fill="black"/>
<path fill-rule="evenodd" clip-rule="evenodd" d="M21.8174 19.7938C21.8174 18.0142 23.2356 16.5715 24.985 16.5715H25.0134C26.7628 16.5715 28.181 18.0142 28.181 19.7938C28.181 21.5733 26.7628 23.016 25.0134 23.016H24.985C23.2356 23.016 21.8174 21.5733 21.8174 19.7938Z" fill="black"/>
</svg>
