<svg width="53" height="58" viewBox="0 0 53 58" fill="none" xmlns="http://www.w3.org/2000/svg">
<g clip-path="url(#clip0_15_1545)">
<path d="M26.5164 0H26.0649C11.6736 0 0 11.6652 0 26.0649V26.7255C0 36.6263 5.52739 45.2393 13.6554 49.6546C13.4631 50.5995 12.8443 52.0796 11.8826 53.3674C10.7788 54.8475 9.39071 56.5784 8.74683 57.2641C8.1113 57.9498 8.68829 58.2592 10.6032 57.7659C12.5182 57.2641 16.532 55.7171 19.5424 53.9945C20.8887 53.2168 21.6747 52.7736 22.235 52.4893C23.4893 52.6733 24.752 52.7987 26.0649 52.7987H26.5164C40.9077 52.7987 52.5813 41.1251 52.5813 26.7339V26.0732C52.5813 11.6652 40.9077 0 26.5164 0ZM12.5767 25.63H18.1626V31.1658H12.5767C11.6819 31.1658 10.9294 30.9149 10.3356 30.4132C9.75029 29.9198 9.45761 29.2592 9.45761 28.3728C9.45761 27.4864 9.75029 26.876 10.344 26.3826C10.9544 25.8725 11.6819 25.63 12.5767 25.63ZM38.8005 28.1052C37.1113 30.1623 34.6277 31.1993 31.4167 31.1993H27.637V25.6635H29.7108C31.2661 25.6635 32.4285 25.2537 33.2647 24.4175C34.0424 23.6315 34.4354 22.5611 34.4354 21.2148C34.3685 19.9856 33.9253 18.9988 33.1225 18.2713C32.3198 17.5522 31.2912 17.1843 30.0704 17.1843H26.0231V37.8472C26.0231 38.859 25.7388 39.7287 25.1701 40.4144C24.6099 41.1001 23.8489 41.4262 22.8454 41.4262C21.842 41.4262 21.081 41.0917 20.4873 40.406C19.8936 39.7036 19.6093 38.8674 19.6093 37.8388V15.5536C19.6093 14.3077 19.9521 13.3544 20.6462 12.652C21.3319 11.9579 22.3103 11.6067 23.5479 11.6067H30.5136C33.7999 11.6067 36.3002 12.4262 37.9559 14.0401C38.5663 14.6254 39.1099 15.3111 39.5781 16.0888C40.0464 16.8665 40.406 17.7027 40.6569 18.564C40.8994 19.4337 41.0248 20.3117 41.0248 21.1646C41.0248 23.9994 40.2722 26.3241 38.7921 28.0885L38.8005 28.1052Z" fill="black"/>
</g>
<defs>
<clipPath id="clip0_15_1545">
<rect width="52.5813" height="58" fill="white"/>
</clipPath>
</defs>
</svg>
