<svg width="55" height="60" viewBox="0 0 55 60" fill="none" xmlns="http://www.w3.org/2000/svg">
<path d="M25 32C16.7304 32 10 25.0452 10 16.5C10 7.95478 16.7304 1 25 1C33.2696 1 40 7.95478 40 16.5C40 25.0452 33.2696 32 25 32ZM25 5.04348C18.8957 5.04348 13.913 10.1922 13.913 16.5C13.913 22.8078 18.8957 27.9565 25 27.9565C31.1043 27.9565 36.087 22.8078 36.087 16.5C36.087 10.1922 31.1043 5.04348 25 5.04348Z" fill="black"/>
<path fill-rule="evenodd" clip-rule="evenodd" d="M25 1.5C17.0219 1.5 10.5 8.21534 10.5 16.5C10.5 24.7847 17.0219 31.5 25 31.5C32.9781 31.5 39.5 24.7847 39.5 16.5C39.5 8.21534 32.9781 1.5 25 1.5ZM9.5 16.5C9.5 7.69422 16.439 0.5 25 0.5C33.561 0.5 40.5 7.69422 40.5 16.5C40.5 25.3058 33.561 32.5 25 32.5C16.439 32.5 9.5 25.3058 9.5 16.5ZM13.413 16.5C13.413 9.93161 18.6042 4.54348 25 4.54348C31.3958 4.54348 36.587 9.93161 36.587 16.5C36.587 23.0684 31.3958 28.4565 25 28.4565C18.6042 28.4565 13.413 23.0684 13.413 16.5ZM25 5.54348C19.1871 5.54348 14.413 10.4527 14.413 16.5C14.413 22.5473 19.1871 27.4565 25 27.4565C30.8129 27.4565 35.587 22.5473 35.587 16.5C35.587 10.4527 30.8129 5.54348 25 5.54348Z" fill="black"/>
<path d="M35.6924 59C34.6885 59 33.7375 58.6302 33.0506 57.9434C32.2317 57.1247 31.8618 55.9362 32.0467 54.6948L32.5487 51.1292C32.6808 50.2048 33.2356 49.1218 33.896 48.4351L43.2479 39.0852C46.9992 35.3347 50.3016 37.4741 51.913 39.0852C53.2868 40.4587 54 41.9376 54 43.4167C54 44.9222 53.3132 46.3221 51.913 47.7219L42.561 57.072C41.9006 57.7323 40.7911 58.2869 39.8665 58.419L36.3 58.9207C36.0886 58.9735 35.9038 59 35.6924 59ZM47.554 40.9604C47.0785 40.9604 46.6558 41.2774 46.0482 41.8849L36.6963 51.2348C36.6171 51.314 36.4849 51.5781 36.4849 51.6838L36.0094 54.9853L39.3117 54.5099C39.4173 54.4835 39.6815 54.3515 39.7607 54.2723L49.1128 44.9222C49.5354 44.4996 50.0373 43.8921 50.0373 43.4167C50.0373 43.0205 49.7204 42.466 49.1128 41.8849C48.4787 41.251 48.0031 40.9604 47.554 40.9604Z" fill="black"/>
<path fill-rule="evenodd" clip-rule="evenodd" d="M48.2949 37.5668C46.9831 37.3323 45.3791 37.6614 43.6013 39.4388L34.2531 48.7851C33.6606 49.4029 33.1596 50.389 33.0437 51.1994C33.0436 51.1996 33.0437 51.1993 33.0437 51.1994L32.5418 54.7645L32.5412 54.7685C32.3775 55.8671 32.7068 56.8927 33.4041 57.5899C33.9898 58.1755 34.8102 58.5 35.6923 58.5C35.8562 58.5 36 58.4803 36.1787 58.4356L36.2042 58.4292L39.7957 57.924C39.7956 57.9241 39.7959 57.924 39.7957 57.924C40.6132 57.8072 41.6236 57.3021 42.2074 56.7184L51.5595 47.3683C52.8985 46.0296 53.4999 44.7496 53.4999 43.4167C53.4999 42.1081 52.8701 40.7492 51.5595 39.4388C50.7854 38.6649 49.6455 37.8083 48.2949 37.5668ZM48.4708 36.5824C50.112 36.8758 51.4291 37.8944 52.2665 38.7316C53.7033 40.1682 54.4999 41.7671 54.4999 43.4167C54.4999 45.0949 53.7277 46.6146 52.2665 48.0755L42.9144 57.4256C42.1775 58.1623 40.9688 58.7666 39.9371 58.914L39.9361 58.9141L36.3948 59.4123C36.1608 59.4691 35.9418 59.5 35.6923 59.5C34.5667 59.5 33.485 59.0849 32.697 58.2971C31.7569 57.3571 31.3463 56.0066 31.5518 54.6232C31.5519 54.6225 31.552 54.6218 31.5521 54.6211L32.0536 51.0585C32.2018 50.0217 32.8087 48.8443 33.5356 48.0885L33.5424 48.0815L42.8943 38.7316C44.8679 36.7585 46.7907 36.2821 48.4708 36.5824ZM45.6946 41.5313C46.2852 40.9409 46.8451 40.4604 47.554 40.4604C48.2207 40.4604 48.8232 40.8892 49.4623 41.5275C49.7884 41.8399 50.0496 42.1571 50.2325 42.4645C50.4121 42.7663 50.5372 43.0941 50.5372 43.4167C50.5372 43.8092 50.34 44.1844 50.1479 44.469C49.9448 44.7699 49.6893 45.0528 49.4662 45.2758L40.1142 54.6259C40.0139 54.7261 39.8641 54.8092 39.7761 54.8548C39.6799 54.9047 39.5448 54.967 39.4328 54.995L39.4081 55.0012L35.4192 55.5754L35.9868 51.6346C35.9936 51.5454 36.0172 51.4676 36.0324 51.422C36.0543 51.3564 36.0821 51.2911 36.1104 51.2324C36.158 51.1335 36.2405 50.9834 36.3427 50.8812L45.6946 41.5313ZM47.554 41.4604C47.3118 41.4604 47.0263 41.614 46.4016 42.2385L37.0616 51.5766C37.0595 51.5796 37.0568 51.5837 37.0534 51.589C37.0409 51.6091 37.0257 51.6365 37.0113 51.6664C36.9982 51.6936 36.9887 51.7168 36.9829 51.7329L36.5995 54.3952L39.1992 54.0209C39.2045 54.0189 39.2114 54.0161 39.22 54.0124C39.2478 54.0007 39.2815 53.9848 39.316 53.967C39.3507 53.949 39.381 53.9316 39.4033 53.9174C39.41 53.9131 39.415 53.9097 39.4185 53.9073L48.7592 44.5686C48.9587 44.3691 49.1656 44.1369 49.3191 43.9095C49.4835 43.6659 49.5372 43.4996 49.5372 43.4167C49.5372 43.3431 49.5039 43.1956 49.3731 42.9758C49.2464 42.7629 49.0467 42.5137 48.7671 42.2463L48.7591 42.2386C48.1316 41.6113 47.7841 41.4604 47.554 41.4604Z" fill="black"/>
<path d="M48.5915 49C48.4596 49 48.3277 48.9785 48.2146 48.9355C45.7274 48.1393 43.7489 45.8796 43.0517 43.0389C42.8445 42.1781 43.2779 41.2958 44.0316 41.0591C44.7853 40.8224 45.5578 41.3173 45.7651 42.1781C46.1985 43.9427 47.4233 45.3416 48.9684 45.8366C49.7221 46.0733 50.1555 46.9771 49.9483 47.8164C49.7787 48.5266 49.2133 49 48.5915 49Z" fill="black"/>
<path fill-rule="evenodd" clip-rule="evenodd" d="M45.279 42.2951C45.1261 41.6602 44.6072 41.4024 44.1814 41.5361C43.7264 41.679 43.38 42.2646 43.5376 42.9209C44.1995 45.6164 46.0681 47.7233 48.3671 48.4593L48.3799 48.4634L48.3925 48.4682C48.4399 48.4863 48.5101 48.5 48.5915 48.5C48.9462 48.5 49.3373 48.2221 49.4619 47.7003L49.4628 47.6965C49.6195 47.062 49.2725 46.4562 48.8186 46.3136L48.8158 46.3127L48.8158 46.3127C47.0829 45.7576 45.7484 44.2066 45.2795 42.2973L45.279 42.2951L45.279 42.2951ZM46.2509 42.0598C45.9888 40.9738 44.963 40.2425 43.8818 40.5821C42.8296 40.9125 42.3092 42.0911 42.5656 43.156L42.5656 43.156L42.5661 43.1581C43.2978 46.1392 45.381 48.5483 48.0506 49.408C48.2254 49.4723 48.4138 49.5 48.5915 49.5C49.4798 49.5 50.219 48.832 50.4341 47.9344C50.6907 46.8913 50.1715 45.6914 49.1197 45.36C47.7633 44.925 46.6489 43.6789 46.2509 42.0598Z" fill="black"/>
<path d="M3.01107 59C1.91169 59 1 58.08 1 56.9706C1 45.4165 12.2353 36 26.0447 36C28.9674 36 31.8633 36.433 34.5716 37.2448C35.6442 37.5695 36.2341 38.7059 35.9123 39.7612C35.5905 40.8436 34.4644 41.4389 33.4186 41.1142C31.0589 40.4106 28.592 40.0317 26.0447 40.0317C14.4609 40.0317 5.02215 47.6082 5.02215 56.9435C5.02215 58.08 4.11046 59 3.01107 59Z" fill="black"/>
<path fill-rule="evenodd" clip-rule="evenodd" d="M26.0447 36.5C12.4247 36.5 1.5 45.772 1.5 56.9706C1.5 57.8081 2.1921 58.5 3.01107 58.5C3.82577 58.5 4.52215 57.8125 4.52215 56.9435C4.52215 47.2357 14.2921 39.5317 26.0447 39.5317C28.6421 39.5317 31.1571 39.9181 33.5615 40.635L33.5669 40.6366L33.5669 40.6366C34.3436 40.8778 35.1897 40.4372 35.433 39.6187L35.434 39.6154C35.6763 38.821 35.231 37.9671 34.4273 37.7235C31.7657 36.9258 28.9184 36.5 26.0447 36.5ZM0.5 56.9706C0.5 45.061 12.0458 35.5 26.0447 35.5C29.0162 35.5 31.9605 35.9401 34.7152 36.7658L34.7165 36.7662C36.057 37.172 36.7912 38.5899 36.3911 39.9054C35.9905 41.2496 34.5865 41.9987 33.2731 41.5925C30.9589 40.9028 28.541 40.5317 26.0447 40.5317C14.6296 40.5317 5.52215 47.9807 5.52215 56.9435C5.52215 58.3475 4.39516 59.5 3.01107 59.5C1.63128 59.5 0.5 58.3519 0.5 56.9706Z" fill="black"/>
</svg>
